<svg xmlns="http://www.w3.org/2000/svg" width="1600" height="900" viewBox="0 0 1600 900">
  <defs>
    <linearGradient id="bg" x1="0" y1="0" x2="1" y2="1">
      <stop offset="0%" stop-color="#0a0f1f"/>
      <stop offset="55%" stop-color="#1b347f"/>
      <stop offset="100%" stop-color="#5c2c78"/>
    </linearGradient>
    <radialGradient id="g1" cx="18%" cy="16%" r="40%">
      <stop offset="0%" stop-color="#6ee7f9" stop-opacity="0.33"/>
      <stop offset="100%" stop-color="#6ee7f9" stop-opacity="0"/>
    </radialGradient>
    <radialGradient id="g2" cx="82%" cy="14%" r="36%">
      <stop offset="0%" stop-color="#ff79c6" stop-opacity="0.3"/>
      <stop offset="100%" stop-color="#ff79c6" stop-opacity="0"/>
    </radialGradient>
  </defs>
  <rect width="1600" height="900" fill="url(#bg)" rx="36"/>
  <rect width="1600" height="900" fill="url(#g1)" rx="36"/>
  <rect width="1600" height="900" fill="url(#g2)" rx="36"/>
  <g opacity="0.12" stroke="#ffffff">
    <path d="M0 90H1600M0 180H1600M0 270H1600M0 360H1600M0 450H1600M0 540H1600M0 630H1600M0 720H1600M0 810H1600"/>
    <path d="M90 0V900M180 0V900M270 0V900M360 0V900M450 0V900M540 0V900M630 0V900M720 0V900M810 0V900M900 0V900M990 0V900M1080 0V900M1170 0V900M1260 0V900M1350 0V900M1440 0V900M1530 0V900"/>
  </g>
  <g font-family="-apple-system,BlinkMacSystemFont,'PingFang SC','Helvetica Neue',sans-serif" fill="#eef2ff">
    <text x="110" y="170" font-size="42" font-weight="700">💍 2026 Honeymoon Plan</text>
    <text x="110" y="320" font-size="86" font-weight="800">泰国 7 天 × 香港澳门 6 天</text>
    <text x="110" y="420" font-size="44" opacity="0.94">松弛、不赶路、但足够浪漫的双人旅行方案</text>
    <text x="110" y="540" font-size="30" opacity="0.82">香港看夜景 · 澳门住酒店 · 曼谷开胃 · 苏梅岛收尾</text>
    <g font-size="28" opacity="0.94">
      <rect x="110" y="620" width="190" height="54" rx="27" fill="rgba(255,255,255,0.1)"/>
      <text x="145" y="656">🇹🇭 泰国 7 天</text>
      <rect x="325" y="620" width="220" height="54" rx="27" fill="rgba(255,255,255,0.1)"/>
      <text x="360" y="656">🇭🇰🇲🇴 港澳 6 天</text>
      <rect x="570" y="620" width="190" height="54" rx="27" fill="rgba(255,255,255,0.1)"/>
      <text x="610" y="656">✨ 酒店优先</text>
    </g>
    <text x="110" y="790" font-size="26" opacity="0.72">Ssiswent's Blog · Travel / Honeymoon</text>
  </g>
</svg>